<svg id="a990414a-0865-4394-9005-bbd314b6c4c2" data-name="Layer 1" xmlns="http://www.w3.org/2000/svg" viewBox="0 0 25 25"><defs><style>.ac5181c4-a33f-44ac-9129-0404e56a4967{fill:#3a3a3a;}</style></defs><title>Side_menu</title><path class="ac5181c4-a33f-44ac-9129-0404e56a4967" d="M12.5,17.68a5.18,5.18,0,1,1,5.17-5.18A5.18,5.18,0,0,1,12.5,17.68Zm0-8.36a3.18,3.18,0,1,0,3.17,3.18A3.18,3.18,0,0,0,12.5,9.32Z"/><path class="ac5181c4-a33f-44ac-9129-0404e56a4967" d="M13.8,25H11.2A2.17,2.17,0,0,1,9,23L9,22.2a10.32,10.32,0,0,1-3.08-1.78l-.73.34a2.16,2.16,0,0,1-2.8-.88l-1.3-2.26a2.16,2.16,0,0,1,.64-2.87l.66-.47a10,10,0,0,1,0-3.56l-.66-.47a2.16,2.16,0,0,1-.64-2.87l1.3-2.26a2.16,2.16,0,0,1,2.8-.88l.73.34A10.32,10.32,0,0,1,9,2.8L9,2A2.17,2.17,0,0,1,11.2,0h2.6A2.17,2.17,0,0,1,16,2L16,2.8a10.32,10.32,0,0,1,3.08,1.78l.73-.34a2.16,2.16,0,0,1,2.8.88l1.3,2.26a2.16,2.16,0,0,1-.64,2.87l-.66.47a10,10,0,0,1,0,3.56l.66.47a2.16,2.16,0,0,1,.64,2.87l-1.3,2.26a2.16,2.16,0,0,1-2.8.88l-.73-.34A10.32,10.32,0,0,1,16,22.2L16,23A2.17,2.17,0,0,1,13.8,25ZM6.05,18.24a1.1,1.1,0,0,1,.75.31,8.34,8.34,0,0,0,3.33,1.93,1.09,1.09,0,0,1,.78,1L11,22.83a.17.17,0,0,0,.17.16h2.6a.17.17,0,0,0,.17-.16l.12-1.39a1.09,1.09,0,0,1,.78-1,8.34,8.34,0,0,0,3.33-1.93,1.08,1.08,0,0,1,1.22-.2l1.26.59a.18.18,0,0,0,.23-.07l1.3-2.25a.18.18,0,0,0-.06-.23L21,15.58a1.07,1.07,0,0,1-.44-1.15,8.75,8.75,0,0,0,.23-1.93,8.75,8.75,0,0,0-.23-1.93A1.08,1.08,0,0,1,21,9.42l1.15-.81a.18.18,0,0,0,.06-.23l-1.3-2.25a.18.18,0,0,0-.23-.07l-1.26.59a1.1,1.1,0,0,1-1.22-.2,8.34,8.34,0,0,0-3.33-1.93,1.09,1.09,0,0,1-.78-1L14,2.17A.17.17,0,0,0,13.8,2H11.2a.17.17,0,0,0-.17.16l-.12,1.39a1.09,1.09,0,0,1-.78,1A8.34,8.34,0,0,0,6.8,6.45a1.08,1.08,0,0,1-1.21.2L4.31,6.06a.17.17,0,0,0-.22.07L2.79,8.38a.18.18,0,0,0,.06.23L4,9.42a1.07,1.07,0,0,1,.44,1.15A8.75,8.75,0,0,0,4.2,12.5a8.75,8.75,0,0,0,.23,1.93A1.08,1.08,0,0,1,4,15.58l-1.15.81a.18.18,0,0,0-.06.23l1.3,2.25a.17.17,0,0,0,.23.07l1.26-.59A1.12,1.12,0,0,1,6.05,18.24ZM9.56,22.4Zm5.89,0h0Zm-6.53-.79Zm7.16,0Zm2.49-1.44h0Zm-12.13,0h0Zm-1-.16h0Zm14.14,0ZM2.49,10.11Zm20,0ZM5.43,5ZM19.57,5h0ZM9.56,2.6h0Zm5.88,0Z"/></svg>