<svg id="a9164cc3-d3eb-42e7-a232-03090dd5fd3f" data-name="Layer 1" xmlns="http://www.w3.org/2000/svg" viewBox="0 0 25 25"><defs><style>.a2fcf0bf-0c6f-4513-8195-6d0154bd9f98{fill:#3a3a3a;}</style></defs><title>Side_menu</title><path class="a2fcf0bf-0c6f-4513-8195-6d0154bd9f98" d="M22,25H3a3,3,0,0,1-3-3V3A3,3,0,0,1,3,0H22a3,3,0,0,1,3,3V22A3,3,0,0,1,22,25ZM3,2A1,1,0,0,0,2,3V22a1,1,0,0,0,1,1H22a1,1,0,0,0,1-1V3a1,1,0,0,0-1-1Z"/><path class="a2fcf0bf-0c6f-4513-8195-6d0154bd9f98" d="M16.82,16.91a1,1,0,0,1-.63-.22,1,1,0,0,1-.14-1.41l2.26-2.78L16.05,9.72a1,1,0,0,1,.14-1.41,1,1,0,0,1,1.41.15l2.78,3.41a1,1,0,0,1,0,1.26L17.6,16.54A1,1,0,0,1,16.82,16.91Z"/><path class="a2fcf0bf-0c6f-4513-8195-6d0154bd9f98" d="M8.18,16.91a1,1,0,0,1-.78-.37L4.62,13.13a1,1,0,0,1,0-1.26L7.4,8.46a1,1,0,0,1,1.41-.15A1,1,0,0,1,9,9.72L6.69,12.5,9,15.28a1,1,0,0,1-.14,1.41A1,1,0,0,1,8.18,16.91Z"/><path class="a2fcf0bf-0c6f-4513-8195-6d0154bd9f98" d="M11.61,18.4h-.18a1,1,0,0,1-.81-1.16l1.79-9.81a1,1,0,1,1,2,.35l-1.79,9.81A1,1,0,0,1,11.61,18.4Z"/></svg>