<svg id="e01f51d9-9496-46e2-8a27-245a15bef4b4" data-name="Layer 1" xmlns="http://www.w3.org/2000/svg" viewBox="0 0 25 25"><defs><style>.e20ced6c-da65-4c27-82e8-8704bf207e01{fill:#3a3a3a;}</style></defs><title>Side_menu</title><path class="e20ced6c-da65-4c27-82e8-8704bf207e01" d="M20.25,1.93h-1.8A2.42,2.42,0,0,0,16.08,0H8.92A2.42,2.42,0,0,0,6.55,1.93H4.75A2.73,2.73,0,0,0,2,4.63V22.3A2.73,2.73,0,0,0,4.75,25h15.5A2.73,2.73,0,0,0,23,22.3V4.63A2.73,2.73,0,0,0,20.25,1.93ZM8.5,2.42A.42.42,0,0,1,8.92,2h7.16a.42.42,0,0,1,.42.42v1a.42.42,0,0,1-.42.42H8.92a.42.42,0,0,1-.42-.42ZM21,22.3a.73.73,0,0,1-.75.7H4.75A.73.73,0,0,1,4,22.3V4.63a.73.73,0,0,1,.75-.69h1.8A2.43,2.43,0,0,0,8.92,5.85h7.16a2.43,2.43,0,0,0,2.37-1.91h1.8a.73.73,0,0,1,.75.69Z"/><path class="e20ced6c-da65-4c27-82e8-8704bf207e01" d="M17.5,10.2H7.5a1,1,0,0,0,0,2h10a1,1,0,0,0,0-2Z"/><path class="e20ced6c-da65-4c27-82e8-8704bf207e01" d="M17.5,14.72H7.5a1,1,0,0,0,0,2h10a1,1,0,0,0,0-2Z"/></svg>