<svg id="adb1458d-874f-4584-be80-d7039a63cc2e" data-name="Layer 1" xmlns="http://www.w3.org/2000/svg" viewBox="0 0 25 25"><defs><style>.eb43ab7a-0ca6-4b45-ac1b-5c76b5743214{fill:#3a3a3a;}</style></defs><title>Side_menu</title><path class="eb43ab7a-0ca6-4b45-ac1b-5c76b5743214" d="M6.26,6.27a1.28,1.28,0,0,0,0-2.56,1.28,1.28,0,0,0,0,2.56Z"/><path class="eb43ab7a-0ca6-4b45-ac1b-5c76b5743214" d="M6.26,13.78A1.28,1.28,0,1,0,5,12.5,1.28,1.28,0,0,0,6.26,13.78Z"/><path class="eb43ab7a-0ca6-4b45-ac1b-5c76b5743214" d="M6.26,18.74A1.28,1.28,0,1,0,7.54,20,1.28,1.28,0,0,0,6.26,18.74Z"/><path class="eb43ab7a-0ca6-4b45-ac1b-5c76b5743214" d="M25,3.35A3.35,3.35,0,0,0,21.65,0H3.35A3.35,3.35,0,0,0,0,3.35v3A3.34,3.34,0,0,0,1,8.67,3.31,3.31,0,0,0,0,11v3a3.31,3.31,0,0,0,1,2.35,3.34,3.34,0,0,0-1,2.35v3A3.35,3.35,0,0,0,3.35,25h18.3A3.35,3.35,0,0,0,25,21.65v-3a3.34,3.34,0,0,0-1-2.35A3.31,3.31,0,0,0,25,14V11a3.31,3.31,0,0,0-1-2.35,3.34,3.34,0,0,0,1-2.35Zm-23,0A1.36,1.36,0,0,1,3.35,2h18.3A1.36,1.36,0,0,1,23,3.35v3a1.36,1.36,0,0,1-1.35,1.35H3.35A1.36,1.36,0,0,1,2,6.32ZM23,11v3a1.35,1.35,0,0,1-1.35,1.35H3.35A1.35,1.35,0,0,1,2,14V11A1.35,1.35,0,0,1,3.35,9.67h18.3A1.35,1.35,0,0,1,23,11Zm0,10.63A1.36,1.36,0,0,1,21.65,23H3.35A1.36,1.36,0,0,1,2,21.65v-3a1.36,1.36,0,0,1,1.35-1.35h18.3A1.36,1.36,0,0,1,23,18.68Z"/></svg>