<svg id="b199945f-daf3-41bd-a9a4-e5b24207ed11" data-name="Layer 1" xmlns="http://www.w3.org/2000/svg" viewBox="0 0 25 25"><defs><style>.e225a5ed-f223-4106-809e-1941a3be8dcb{fill:#3a3a3a;}</style></defs><title>Side_menu</title><path class="e225a5ed-f223-4106-809e-1941a3be8dcb" d="M20.25,25a4.75,4.75,0,0,1-4.75-4.75V17.5h-6v2.75A4.75,4.75,0,1,1,4.75,15.5H7.5v-6H4.75A4.75,4.75,0,1,1,9.5,4.75V7.5h6V4.75A4.75,4.75,0,1,1,20.25,9.5H17.5v6h2.75a4.75,4.75,0,0,1,0,9.5ZM17.5,17.5v2.75a2.75,2.75,0,1,0,2.75-2.75Zm-12.75,0A2.75,2.75,0,1,0,7.5,20.25V17.5Zm4.75-2h6v-6h-6Zm8-8h2.75A2.75,2.75,0,1,0,17.5,4.75ZM4.75,2a2.75,2.75,0,0,0,0,5.5H7.5V4.75A2.75,2.75,0,0,0,4.75,2Z"/></svg>